<svg id="Layer_1" data-name="Layer 1" xmlns="http://www.w3.org/2000/svg" viewBox="0 0 2466.68 1259.39"><defs><style>.cls-1{fill:#231f20;}</style></defs><path class="cls-1" d="M1078.16,1176.17a189.64,189.64,0,0,1-59.61,47.86,299.82,299.82,0,0,1-73,26,415.77,415.77,0,0,1-79.74,9.23,502.94,502.94,0,0,1-78.09-4.2q-85.62-11.76-174.62-44.49T436.76,1149.3q-67.18-23.52-129.29-42t-110.81-26.86q-57.09-10.1-87.31,0l-33.59,30.22q-8.42,8.41-14.26,2.52t-2.53-16q11.75-25.17,38.62-35.26,65.47-63.78,126.78-148.59T344.42,729.55a174.2,174.2,0,0,1-23.52,5c-7.84,1.12-15.69,2.25-23.5,3.35q-33.6,5-82.27,7.56a357.1,357.1,0,0,1-94.86-7.56Q74.07,727.86,39.67,701T.22,618.73Q-1.43,608.65,9.44,607c7.26-1.1,10.91,2.8,10.91,11.75q0,45.33,31.91,67.16t76.39,28.54a449.28,449.28,0,0,0,91.51,4.2q47-2.52,75.56-7.55,18.45-3.36,34.42-5.88a324.7,324.7,0,0,0,34.43-7.56Q448.51,556.6,535,408T720.52,133.48Q784.32,51.25,833.85,20.15T923.67,5.89q28.56,13.44,42,48.68t6.72,84q-13.47,90.67-66.32,176.3T779.29,479.37q-75.56,78.95-178,143.55T386.4,719.47q-53.76,90.66-115,175.46a1320,1320,0,0,1-136.84,160.34,399.49,399.49,0,0,1,65.48,5q50.37,8.43,112.5,27.7t131,42.82q85.65,28.53,178,56.25t178,39.46q186.38,25.18,263.62-63.8,6.7-8.43,13.42-1.69Q1084.84,1166.11,1078.16,1176.17ZM735.63,145.24Q643.26,266.13,566.05,405.5T406.53,685.89A823.78,823.78,0,0,0,519,641.39a831,831,0,0,0,99.06-56.24q45.35-30.23,83.11-60.45t64.64-58.76Q839.72,387,889.26,296.35t59.61-166.22q1.65-11.73,2.51-27.71a115.79,115.79,0,0,0-2.51-31A93.19,93.19,0,0,0,938,43.66q-7.56-12.6-22.66-19.31Q851.47-2.48,735.63,145.24Z"/><path class="cls-1" d="M1101.67,919.27q-30.23,0-47-11.75a66.45,66.45,0,0,1-24.34-31.06q-7.56-19.29-5.9-43.65A177.54,177.54,0,0,1,1034.5,785q-21.81,20.16-47.84,42a546.14,546.14,0,0,1-54.58,40.3q-16.8,11.78-38.62,25.2a239.87,239.87,0,0,1-45.33,21.82,204.43,204.43,0,0,1-47.85,10.92,87,87,0,0,1-46.17-7.56q-33.57-16.77-36.1-56.25t10.91-82.27a348.25,348.25,0,0,1,37.78-81.44Q791,659,812.88,642.24q10.07-8.38,19.3-1.68c6.14,4.48,7.57,9.52,4.2,15.1Q826.32,667.45,802.81,701a487.23,487.23,0,0,0-42,73q-18.45,39.47-22.66,74.72t24.34,50.37q52,23.52,157.83-48.7,40.29-28.53,76.39-59.6t59.61-57.93q20.16-33.55,42-47,8.39-5,13.44-1.68,6.68,5,1.68,13.43-8.42,10.08-26,42.82a379.34,379.34,0,0,0-28.54,68q-11,35.25-4.2,63t47,27.7q16.75,0,41.13-7.56t61.3-27.7q36.9-20.16,87.31-56.25t119.19-94.87q6.7-6.69,13.44.85c4.47,5,4.47,9.81,0,14.27Q1309.86,827,1231,873.1T1101.67,919.27Z"/><path class="cls-1" d="M1330.84,922.64c-6.14-2.24-7.57-6.14-4.2-11.76q8.41-21.79,36.11-94.87t74.7-168.74q3.36-10.07,19.32-10.07t12.58,13.43q-8.41,8.42-19.3,28.54t-23.51,47q-12.58,26.88-25.18,57.09T1377,840.36q25.17-35.25,59.6-75.55a707.38,707.38,0,0,1,69.69-71.37q35.25-31,68-47.84t56.26-3.36q31.86,16.8,26.86,56.24a354.61,354.61,0,0,1-20.15,79.76q-13.47,36.94-26.87,66.32t0,39.45c2.23,2.26,6.71,3.65,13.45,4.2s16.78-1.38,30.21-5.87,30.78-12,52.06-22.67,48.69-26,82.27-46.17q26.83-16.77,52.87-35.26l46.19-32.74q20.13-14.25,45.32-32.75,6.71-6.69,12.61,1.68t-.86,15.12q-25.18,18.5-45.32,32.74T1853,795q-26.07,18.5-54.57,35.26Q1785,838.71,1759,854.64a584.59,584.59,0,0,1-56.24,30.22,296.25,296.25,0,0,1-58.77,21q-28.58,6.74-45.33-5-20.16-15.12-11.75-49.54a577.93,577.93,0,0,1,22.67-71.36,536.53,536.53,0,0,0,21.82-68.83q7.56-31.87-14.28-45.34-20.13-11.72-59.6,16t-81.44,69.69a1008.11,1008.11,0,0,0-77.23,86.46q-35.25,44.52-48.69,69.68l-5,10.08Q1340.09,926,1330.84,922.64Z"/><path class="cls-1" d="M2204.77,623.77q10.07-8.38,15.95.83t-7.55,16q-10.1,11.76-26.87,36.94a637.15,637.15,0,0,0-33.59,57.09q-16.8,31.9-31.05,65.48t-19.32,61.28q-5,27.71,1.68,45.34t33.59,17.62q18.45,0,44.49-10.91t63-36.1q36.93-25.18,86.47-65.48t118.37-99.07q6.7-6.69,13.45,1.68,6.68,6.74,0,13.44Q2349.13,827,2268.57,885.69t-131,58.77q-37,0-48.69-25.19t-5.88-63q5.85-37.77,23.5-81.43A517.62,517.62,0,0,1,2146,696q-30.21,25.18-66.32,52a775.08,775.08,0,0,1-68.85,46.17q-32.74,19.34-60.44,25.2t-41.13-9.24a44.92,44.92,0,0,1-10.91-27.71q-.82-15.93,6.71-33.57a123.77,123.77,0,0,1,21.83-33.59,206.51,206.51,0,0,1,32.74-29.38,152.39,152.39,0,0,1,35.25-18.47,123.79,123.79,0,0,1,36.11-7.56q17.62-.83,31.9,5.88t22.66,21.83c2.23,5.62,0,9.52-6.71,11.76s-11.2,0-13.44-6.72q-8.42-21.81-35.25-14.27t-54.57,28.53a193.25,193.25,0,0,0-45.33,47.86q-17.65,26.88-5.89,42,10.1,15.12,76.41-18.46t182.17-136c4.47-4.47,8.4-8.11,11.75-10.91A120.86,120.86,0,0,1,2204.77,623.77Z"/><path class="cls-1" d="M1326.64,341.83l-18.16,78.69H1060.32V408.41h14.12c6.72,0,11.42-1.32,14.13-4s4-6.72,4-12.11V103.76q0-8-4-12.11c-2.71-2.68-7.41-4-14.13-4h-12.1V75.51h94.82v12.1H1143a24.9,24.9,0,0,0-14.12,4c-2.71,2.71-4,6.75-4,12.11V392.27c0,5.39,1.33,9.43,4,12.11a24.66,24.66,0,0,0,14.12,4h94.83q26.19,0,48.42-18.16,20.14-18.15,30.26-52.45Z"/><path class="cls-1" d="M1449.72,420.52h-92.81V408.41H1371c6.71,0,11.41-1.32,14.12-4s4-6.72,4-12.11V224.81a25,25,0,0,0-4-14.12c-2.71-2.68-7.41-4-14.12-4h-14.12v-12.1H1365a82,82,0,0,0,26.23-4,111.29,111.29,0,0,0,22.19-10.09h4V392.27c0,5.39,1.33,9.43,4,12.11a24.66,24.66,0,0,0,14.12,4h14.13Z"/><path class="cls-1" d="M1621.21,378.15q-2,20.19-16.14,32.28t-38.33,12.11q-22.23,0-38.34-16.14-14.13-14.1-14.12-56.5V206.65h-42.37v-12.1h18.16q20.15,0,26.23-16.14,8-14.1,12.1-46.41l2-16.14h12.11v78.69h64.56v12.1h-64.56V358q0,30.27,10.08,38.34a34.68,34.68,0,0,0,22.2,8.07q12.11,0,24.21-8.07,10.07-8,12.1-22.2Z"/><path class="cls-1" d="M1802.8,378.15q-2,20.19-16.15,32.28t-38.33,12.11q-22.23,0-38.33-16.14-14.15-14.1-14.13-56.5V206.65h-42.37v-12.1h18.16c13.43,0,22.2-5.36,26.23-16.14q8-14.1,12.11-46.41l2-16.14h12.11v78.69h64.56v12.1h-64.56V358q0,30.27,10.09,38.34a34.63,34.63,0,0,0,22.19,8.07q12.1,0,24.21-8.07,10.08-8,12.11-22.2Z"/><path class="cls-1" d="M1938,420.52h-92.8V408.41h14.12c6.71,0,11.41-1.32,14.12-4s4-6.72,4-12.11V103.76c0-5.36-1.36-9.4-4-12.11s-7.41-4-14.12-4h-14.12V75.51h12.1a58.69,58.69,0,0,0,22.19-4,122.59,122.59,0,0,0,22.2-12.1h4v332.9c0,5.39,1.33,9.43,4,12.11a24.66,24.66,0,0,0,14.12,4H1938Z"/><path class="cls-1" d="M2010.61,307.53q0,54.48,20.17,76.67,22.19,24.21,56.5,24.21,24.21,0,44.38-16.14,18.16-16.12,26.23-36.31l10.09,4q-6,20.19-28.25,42.37t-56.49,22.19q-46.44,0-76.67-30.26-28.27-30.27-28.24-86.76,0-52.44,28.24-84.74t72.64-32.28q38.29,0,66.58,26.23T2174,307.53Zm129.12-12.1q2-44.35-16.14-68.6-16.17-22.19-44.38-22.19-30.27,0-50.44,24.21-18.16,22.22-18.16,66.58Z"/><path class="cls-1" d="M1371.18,169c-1.38,0-2.77-.05-4.19-.14a61.4,61.4,0,0,1-16.72-119l15.55-5.31-6.29,15.19a47.75,47.75,0,0,0,8.33,50.23,46.83,46.83,0,0,0,22.82,14.18,47.32,47.32,0,0,0,26.9-.43l15.48-4.67-6.55,14.78C1418.84,151.19,1398.47,169,1371.18,169Zm-29.86-97.31a46,46,0,0,0-16.71,38.8,46.6,46.6,0,0,0,79.23,30.22,57.18,57.18,0,0,1-17.11-2.27,62.36,62.36,0,0,1-45.41-66.75Z"/></svg>